<?xml version="1.0" encoding="UTF-8" standalone="no"?>
<svg width="289px" height="39px" viewBox="0 0 289 39" version="1.1" xmlns="http://www.w3.org/2000/svg" xmlns:xlink="http://www.w3.org/1999/xlink" xmlns:sketch="http://www.bohemiancoding.com/sketch/ns">
    <title>HYPEBEAST</title>
    <defs></defs>
    <g id="Page-1" stroke="none" stroke-width="1" fill="none" fill-rule="evenodd" sketch:type="MSPage">
        <g id="Artboard-1" sketch:type="MSArtboardGroup" fill="#000000">
            <g id="HB_logo_web" sketch:type="MSLayerGroup">
                <g id="Group" sketch:type="MSShapeGroup">
                    <path d="M24,16 L6,16 L6,1 L0,1 L0,38 L6,38 L6,22 L24,22 L24,38 L30,38 L30,1 L24,1 L24,16 Z" id="Shape"></path>
                    <path d="M68,1 L68,38 L74,38 L74,23 L84.8,23 C91.1,23 95,18.6 95,13.5 L95,10.7 C95,5.4 90.9,1 84.8,1 L68,1 Z M89,13.09 C89,15.505 87.4,17.5 84.2,17.5 L74,17.5 L74,7 L84.2,7 C87.3,7 89,9.1 89,11.305 L89,13.09 L89,13.09 Z" id="Shape"></path>
                    <path d="M58,1 L49.1,16.3 L40.2,1 L32.9,1 L46,22.2 L46,38 L52,38 L52,22.2 L64.9,1 L58,1 Z" id="Shape"></path>
                    <path d="M106,22 L124,22 L124,16 L106,16 L106,7 L125,7 L125,1 L100,1 L100,38 L125,38 L125,32 L106,32 L106,22 Z" id="Shape"></path>
                    <path d="M289,1 L261,1 L261,6.5 L272,6.5 L272,38 L278,38 L278,6.5 L289,6.5 L289,1 Z" id="Shape"></path>
                    <path d="M155.4,19 C157.6,17.8 159,15.6 159,13.4 L159,10.2 C159,5.7 155.9,1 149.1,1 L132,1 L132,38 L150.8,38 C157.7,38 160,32.7 160,28.7 L160,26.2 C160,23.2 158.5,20.5 155.4,19 L155.4,19 Z M148.9,6.5 C151.9,6.5 153,8.495 153,10.595 L153,12.275 C153,14.27 151.9,17 148.9,17 L138,17 L138,6.5 L148.9,6.5 L148.9,6.5 Z M154,28.51 C154,30.82 152.4,32.5 150,32.5 L138,32.5 L138,22 L150,22 C152.9,22 154,24.415 154,26.62 L154,28.51 L154,28.51 Z" id="Shape"></path>
                    <path d="M241.6,16 C238.1,16 236,14 236,11.4 L236,10.3 C236,7.8 237.403809,5.5 241.6,5.5 L246,5.5 C250.041748,5.5 251.7,7.9 251.7,10.9 L257.7,10.9 C257.7,3.9 253.813477,0.499999999 246.9,0.5 L241,0.5 C234.29834,0.499999999 230,4.3 230,10.1 L230,12.2 C230,17.3 234.5,22 240.7,22 L246.6,22 C250.6,22 253,24.8 253,27.3 L253,28.1 C253,30.7 250.605957,33.5 246.9,33.5 L241.9,33.5 C238.693481,33.5 236.2,31 236.2,28 L230.1,28 C230.1,34 233.701904,38.5 241.4,38.5 L247.3,38.5 C254.192017,38.5 258.9,34.4 258.9,28.1 L258.9,26.8 C259,20.6 253.2,16 247.6,16 L241.6,16 Z" id="Shape"></path>
                    <path d="M207.7,1 L194.6,38 L201,38 L203.9,29 L218.2,29 L221.1,38 L227.8,38 L214.8,1 L207.7,1 L207.7,1 Z M205.8,24 L211.1,8.2 L216.5,24 L205.8,24 L205.8,24 Z" id="Shape"></path>
                    <path d="M172,22 L190,22 L190,16 L172,16 L172,7 L191,7 L191,1 L166,1 L166,38 L191,38 L191,32 L172,32 L172,22 Z" id="Shape"></path>
                </g>
            </g>
        </g>
    </g>
</svg>
